{
  "accessors": [
    {
      "bufferView": 2,
      "componentType": 5126,
      "count": 1192,
      "max": [
        1.0,
        0.8773000240325928,
        10.293790817260742
      ],
      "min": [
        -1.0,
        -0.8773000240325928,
        -10.293792724609375
      ],
      "type": "VEC3"
    },
    {
      "bufferView": 2,
      "byteOffset": 14304,
      "componentType": 5126,
      "count": 1192,
      "max": [
        1.0,
        1.0,
        1.0
      ],
      "min": [
        -1.0,
        -1.0,
        -1.0
      ],
      "type": "VEC3"
    },
    {
      "bufferView": 3,
      "componentType": 5126,
      "count": 1192,
      "max": [
        1.0,
        1.0,
        0.3569170832633972,
        1.0
      ],
      "min": [
        -1.0,
        -1.0,
        -0.998669445514679,
        1.0
      ],
      "type": "VEC4"
    },
    {
      "bufferView": 1,
      "componentType": 5126,
      "count": 1192,
      "max": [
        0.9597219824790955,
        0.9872310161590576
      ],
      "min": [
        0.0,
        0.0
      ],
      "type": "VEC2"
    },
    {
      "bufferView": 0,
      "componentType": 5125,
      "count": 3372,
      "type": "SCALAR"
    },
    {
      "bufferView": 2,
      "byteOffset": 28608,
      "componentType": 5126,
      "count": 288,
      "max": [
        5.141190052032471,
        1.8936699628829956,
        10.361836433410645
      ],
      "min": [
        -1.0050560235977173,
        -1.8936690092086792,
        -10.296637535095215
      ],
      "type": "VEC3"
    },
    {
      "bufferView": 2,
      "byteOffset": 32064,
      "componentType": 5126,
      "count": 288,
      "max": [
        1.0,
        1.0,
        1.0
      ],
      "min": [
        -1.0,
        -1.0,
        -1.0
      ],
      "type": "VEC3"
    },
    {
      "bufferView": 3,
      "byteOffset": 19072,
      "componentType": 5126,
      "count": 288,
      "max": [
        1.0,
        1.0,
        0.00037241060636006296,
        1.0
      ],
      "min": [
        -1.0,
        -1.0,
        -0.0003681052476167679,
        1.0
      ],
      "type": "VEC4"
    },
    {
      "bufferView": 1,
      "byteOffset": 9536,
      "componentType": 5126,
      "count": 288,
      "max": [
        1.0,
        0.8449360132217407
      ],
      "min": [
        0.0,
        0.0
      ],
      "type": "VEC2"
    },
    {
      "bufferView": 0,
      "byteOffset": 13488,
      "componentType": 5125,
      "count": 696,
      "type": "SCALAR"
    },
    {
      "bufferView": 2,
      "byteOffset": 35520,
      "componentType": 5126,
      "count": 11232,
      "max": [
        5.65511417388916,
        1.1198500394821167,
        9.717656135559082
      ],
      "min": [
        -0.47459501028060913,
        -1.1198500394821167,
        -9.727153778076172
      ],
      "type": "VEC3"
    },
    {
      "bufferView": 2,
      "byteOffset": 170304,
      "componentType": 5126,
      "count": 11232,
      "max": [
        0.6447600722312927,
        1.0,
        1.0
      ],
      "min": [
        -0.6447600722312927,
        -1.0,
        -1.0
      ],
      "type": "VEC3"
    },
    {
      "bufferView": 3,
      "byteOffset": 23680,
      "componentType": 5126,
      "count": 11232,
      "max": [
        0.07728317379951477,
        1.0,
        0.9999999403953552,
        1.0
      ],
      "min": [
        -0.07793069630861282,
        -1.0,
        -0.9999998211860657,
        1.0
      ],
      "type": "VEC4"
    },
    {
      "bufferView": 1,
      "byteOffset": 11840,
      "componentType": 5126,
      "count": 11232,
      "max": [
        0.996891975402832,
        1.0
      ],
      "min": [
        0.0,
        0.0
      ],
      "type": "VEC2"
    },
    {
      "bufferView": 0,
      "byteOffset": 16272,
      "componentType": 5125,
      "count": 44928,
      "type": "SCALAR"
    }
  ],
  "asset": {
    "extras": {
      "author": "Skipperino (https://sketchfab.com/skipperino)",
      "license": "CC-BY-4.0 (http://creativecommons.org/licenses/by/4.0/)",
      "source": "https://sketchfab.com/3d-models/industrial-worn-ladder-game-ready-932aac7b17eb4442be29e551b5c6d307",
      "title": "Industrial Worn Ladder | Game Ready"
    },
    "generator": "Sketchfab-16.10.0",
    "version": "2.0"
  },
  "bufferViews": [
    {
      "buffer": 0,
      "byteLength": 195984,
      "name": "floatBufferViews",
      "target": 34963
    },
    {
      "buffer": 0,
      "byteLength": 101696,
      "byteOffset": 195984,
      "byteStride": 8,
      "name": "floatBufferViews",
      "target": 34962
    },
    {
      "buffer": 0,
      "byteLength": 305088,
      "byteOffset": 297680,
      "byteStride": 12,
      "name": "floatBufferViews",
      "target": 34962
    },
    {
      "buffer": 0,
      "byteLength": 203392,
      "byteOffset": 602768,
      "byteStride": 16,
      "name": "floatBufferViews",
      "target": 34962
    }
  ],
  "buffers": [
    {
      "byteLength": 806160,
      "uri": "scene.bin"
    }
  ],
  "images": [
    {
      "uri": "textures/DefaultMaterial_baseColor.jpeg"
    },
    {
      "uri": "textures/DefaultMaterial_metallicRoughness.png"
    },
    {
      "uri": "textures/DefaultMaterial_normal.png"
    }
  ],
  "materials": [
    {
      "doubleSided": true,
      "name": "DefaultMaterial",
      "normalTexture": {
        "index": 2
      },
      "occlusionTexture": {
        "index": 1
      },
      "pbrMetallicRoughness": {
        "baseColorTexture": {
          "index": 0
        },
        "metallicRoughnessTexture": {
          "index": 1
        }
      }
    }
  ],
  "meshes": [
    {
      "name": "defaultMaterial",
      "primitives": [
        {
          "attributes": {
            "NORMAL": 1,
            "POSITION": 0,
            "TANGENT": 2,
            "TEXCOORD_0": 3
          },
          "indices": 4,
          "material": 0,
          "mode": 4
        }
      ]
    },
    {
      "name": "defaultMaterial",
      "primitives": [
        {
          "attributes": {
            "NORMAL": 6,
            "POSITION": 5,
            "TANGENT": 7,
            "TEXCOORD_0": 8
          },
          "indices": 9,
          "material": 0,
          "mode": 4
        }
      ]
    },
    {
      "name": "defaultMaterial",
      "primitives": [
        {
          "attributes": {
            "NORMAL": 11,
            "POSITION": 10,
            "TANGENT": 12,
            "TEXCOORD_0": 13
          },
          "indices": 14,
          "material": 0,
          "mode": 4
        }
      ]
    }
  ],
  "nodes": [
    {
      "children": [
        1
      ],
      "matrix": [
        1.0,
        0.0,
        0.0,
        0.0,
        0.0,
        2.220446049250313e-16,
        -1.0,
        0.0,
        0.0,
        1.0,
        2.220446049250313e-16,
        0.0,
        0.0,
        0.0,
        0.0,
        1.0
      ],
      "name": "Sketchfab_model"
    },
    {
      "children": [
        2,
        4,
        6
      ],
      "matrix": [
        1.0,
        0.0,
        0.0,
        0.0,
        0.0,
        -4.371139006309477e-08,
        0.999999999999999,
        0.0,
        0.0,
        -0.999999999999999,
        -4.371139006309477e-08,
        0.0,
        0.0,
        0.0,
        0.0,
        1.0
      ],
      "name": "Collada visual scene group"
    },
    {
      "children": [
        3
      ],
      "matrix": [
        22.564533,
        0.0,
        0.0,
        0.0,
        0.0,
        -3.1e-05,
        -192.085587,
        0.0,
        0.0,
        100.0,
        -1.6e-05,
        0.0,
        -11.457328,
        1003.689392,
        0.0,
        1.0
      ],
      "name": "ladder.002"
    },
    {
      "mesh": 0,
      "name": "defaultMaterial"
    },
    {
      "children": [
        5
      ],
      "matrix": [
        22.564533,
        0.0,
        0.0,
        0.0,
        0.0,
        -3.1e-05,
        -192.085587,
        0.0,
        0.0,
        100.0,
        -1.6e-05,
        0.0,
        -11.457328,
        1003.689392,
        0.0,
        1.0
      ],
      "name": "ladder.001"
    },
    {
      "mesh": 1,
      "name": "defaultMaterial"
    },
    {
      "children": [
        7
      ],
      "matrix": [
        22.564533,
        0.0,
        0.0,
        0.0,
        0.0,
        -3.1e-05,
        -192.085587,
        0.0,
        0.0,
        100.0,
        -1.6e-05,
        0.0,
        -11.457328,
        1003.689392,
        0.0,
        1.0
      ],
      "name": "ladder"
    },
    {
      "mesh": 2,
      "name": "defaultMaterial"
    }
  ],
  "samplers": [
    {
      "magFilter": 9729,
      "minFilter": 9987,
      "wrapS": 10497,
      "wrapT": 10497
    }
  ],
  "scene": 0,
  "scenes": [
    {
      "name": "Sketchfab_Scene",
      "nodes": [
        0
      ]
    }
  ],
  "textures": [
    {
      "sampler": 0,
      "source": 0
    },
    {
      "sampler": 0,
      "source": 1
    },
    {
      "sampler": 0,
      "source": 2
    }
  ]
}
